# xmcd
#
# Track frame offsets: 
#        150
#        13237
#        29516
#        48284
#        63527
#        79101
#        94554
#        110518
#
# Disc length: 1686 seconds
#
# Revision: 0
# Processed by: cddbd v1.5.2PL0 Copyright (c) Steve Scherf et al.
# Submitted via: ExactAudioCopyFreeDBPlugin 1.0
#
DISCID=61069408
DTITLE=Will Barber - Alone
DYEAR=2018
DGENRE=Blues
TTITLE0=Prove To Me
TTITLE1=Alone
TTITLE2=Piece Of Heaven
TTITLE3=Life You Are Waiting For
TTITLE4=Personal Jesus
TTITLE5=One Day
TTITLE6=The Way Down
TTITLE7=Another Brick In The Wall
EXTD=
EXTT0=
EXTT1=
EXTT2=
EXTT3=
EXTT4=
EXTT5=
EXTT6=
EXTT7=
PLAYORDER=
